<?xml version="1.0" encoding="utf-8"?>
<!-- Generator: Adobe Illustrator 21.0.0, SVG Export Plug-In . SVG Version: 6.00 Build 0)  -->
<svg version="1.1" id="Layer_1" xmlns="http://www.w3.org/2000/svg" xmlns:xlink="http://www.w3.org/1999/xlink" x="0px" y="0px"
	 viewBox="0 0 25 25" style="enable-background:new 0 0 25 25;" xml:space="preserve">
<path d="M20.5,13.1c-0.1-0.4-0.3-0.8-0.5-1.2L17.6,13c0.2,0.4,0.4,0.8,0.5,1.2L20.5,13.1z M7.9,12.2c0.3-0.4,0.6-0.7,0.9-1L7,9.3
	c-0.3,0.3-0.6,0.6-0.9,1L7.9,12.2z M9.7,10.7c0.4-0.2,0.8-0.4,1.2-0.5l-1-2.6C9.4,7.7,9,7.9,8.6,8.1L9.7,10.7z M6.9,14.3
	C7,13.9,7.2,13.4,7.4,13L4.9,12c-0.2,0.4-0.4,0.8-0.5,1.2C4.4,13.2,6.9,14.3,6.9,14.3z M16.3,8.1c-0.4-0.2-0.8-0.4-1.2-0.5l-1,2.6
	c0.4,0.1,0.8,0.3,1.2,0.5L16.3,8.1z M18.9,10.2c-0.3-0.3-0.6-0.7-0.9-1l-1.9,2c0.3,0.3,0.6,0.6,0.9,1L18.9,10.2z M13.1,7.2
	c-0.2,0-0.4,0-0.6,0s-0.4,0-0.6,0v2.8c0.2,0,0.4,0,0.6,0s0.4,0,0.6,0C13.1,9.9,13.1,7.2,13.1,7.2z M12.5,21.5c-1.3,0-2.3-1-2.3-2.3
	c0-0.9,0.5-1.7,1.2-2.1l1.1-5.6l1.1,5.6c0.7,0.4,1.2,1.2,1.2,2.1C14.8,20.5,13.8,21.5,12.5,21.5z M24.5,15.5c0,2.2-0.6,4.2-1.6,6
	l-1.7-1c0.9-1.5,1.3-3.2,1.3-5c0-5.5-4.5-10-10-10s-10,4.5-10,10c0,1.8,0.5,3.5,1.3,5l-1.7,1c-1-1.8-1.6-3.8-1.6-6
	c0-6.6,5.4-12,12-12S24.5,8.9,24.5,15.5z"/>
</svg>
