<?xml version="1.0" encoding="utf-8"?>
<!-- Generator: Adobe Illustrator 21.0.0, SVG Export Plug-In . SVG Version: 6.00 Build 0)  -->
<svg version="1.1" id="Layer_1" xmlns="http://www.w3.org/2000/svg" xmlns:xlink="http://www.w3.org/1999/xlink" x="0px" y="0px"
	 viewBox="0 0 25 25" style="enable-background:new 0 0 25 25;" xml:space="preserve">
<path d="M12.5,2.5c5.5,0,10,4.5,10,10s-4.5,10-10,10s-10-4.5-10-10S7,2.5,12.5,2.5z M12.5,0.5c-6.6,0-12,5.4-12,12s5.4,12,12,12
	s12-5.4,12-12S19.1,0.5,12.5,0.5z M13.5,18.5h-2v-8h2V18.5z M12.5,6.2c0.7,0,1.2,0.6,1.2,1.2s-0.6,1.2-1.2,1.2s-1.2-0.6-1.2-1.2
	S11.8,6.2,12.5,6.2z"/>
</svg>
